<svg width="24" height="27" viewBox="0 0 24 27" fill="none" xmlns="http://www.w3.org/2000/svg">
<path opacity="0.5" d="M1 11.2259C1 6.70949 1 4.45068 2.40367 3.0482C3.80615 1.64453 6.06496 1.64453 10.5814 1.64453H12.9767C17.4931 1.64453 19.752 1.64453 21.1544 3.0482C22.5581 4.45068 22.5581 6.70949 22.5581 11.2259V16.0166C22.5581 20.533 22.5581 22.7918 21.1544 24.1943C19.752 25.598 17.4931 25.598 12.9767 25.598H10.5814C6.06496 25.598 3.80615 25.598 2.40367 24.1943C1 22.7918 1 20.533 1 16.0166V11.2259Z" stroke="black" stroke-width="1.79651"/>
<path d="M6.9884 13.6208H16.5698M6.9884 8.83008H16.5698M6.9884 18.4115H12.9768" stroke="black" stroke-width="1.79651" stroke-linecap="round"/>
</svg>
