<svg width="24" height="25" viewBox="0 0 24 25" fill="none" xmlns="http://www.w3.org/2000/svg">
<path d="M18.6765 0.208984L23.4357 5.17001V24.0356H5.65723V24.0972H23.4964V5.23245L18.6765 0.208984Z" fill="#909090"/>
<path d="M18.6174 0.146484H5.59644V24.0347H23.4356V5.16995L18.6174 0.146484Z" fill="#F4F4F4"/>
<path d="M5.46568 1.42969H0V7.26916H17.1925V1.42969H5.46568Z" fill="#7A7B7C"/>
<path d="M17.2839 7.16992H0.111084V1.32617H17.2839V7.16992Z" fill="#DD2025"/>
<path d="M5.8052 2.31373H4.68726V6.41941H5.56655V5.0346L5.76072 5.04572C5.94938 5.04247 6.13628 5.00867 6.31413 4.94564C6.47006 4.89201 6.61351 4.80734 6.73582 4.69674C6.86027 4.59137 6.95839 4.4584 7.02236 4.30841C7.10815 4.05907 7.13879 3.79408 7.11217 3.53175C7.10683 3.34435 7.07397 3.15875 7.01466 2.9809C6.96067 2.85252 6.88053 2.73679 6.77937 2.64107C6.6782 2.54535 6.55821 2.47174 6.42704 2.42493C6.31362 2.38387 6.19645 2.35407 6.0772 2.33597C5.9869 2.32204 5.89571 2.31461 5.80434 2.31373M5.64268 4.2759H5.56655V3.00999H5.73164C5.8045 3.00473 5.8776 3.01592 5.94556 3.04271C6.01351 3.06951 6.07458 3.11124 6.12424 3.1648C6.22716 3.30253 6.28213 3.47017 6.28077 3.64209C6.28077 3.85251 6.28077 4.04325 6.09088 4.17754C5.95408 4.25278 5.79837 4.28751 5.64268 4.2759ZM8.78267 2.30261C8.68772 2.30261 8.59535 2.30946 8.53034 2.31202L8.32677 2.31715H7.65959V6.42283H8.4448C8.74488 6.43106 9.04365 6.38019 9.3241 6.27314C9.54984 6.18361 9.74973 6.03927 9.90574 5.85317C10.0574 5.66538 10.1663 5.44674 10.2248 5.21251C10.292 4.94724 10.3248 4.67442 10.3223 4.40078C10.3389 4.0776 10.3139 3.75362 10.2479 3.43681C10.1853 3.20361 10.068 2.98868 9.90574 2.80983C9.77846 2.66542 9.62265 2.54893 9.44813 2.4677C9.29825 2.39834 9.1406 2.34722 8.97854 2.31544C8.9141 2.3048 8.84883 2.29993 8.78352 2.3009M8.62785 5.66841H8.54231V3.04762H8.55343C8.72977 3.02733 8.90819 3.05915 9.06664 3.13914C9.18268 3.2318 9.27724 3.34853 9.34378 3.48128C9.41559 3.62099 9.45698 3.77433 9.46524 3.9312C9.47293 4.11937 9.46524 4.27334 9.46524 4.40078C9.46872 4.54759 9.45927 4.69443 9.43701 4.83958C9.41065 4.98861 9.36191 5.13279 9.29245 5.26725C9.21384 5.39227 9.10763 5.4976 8.98196 5.57518C8.87643 5.64343 8.75146 5.67528 8.62614 5.66585M12.9713 2.31715H10.8928V6.42283H11.7721V4.79424H12.8841V4.03127H11.7721V3.08013H12.9696V2.31715" fill="#464648"/>
<path d="M16.6931 15.7613C16.6931 15.7613 19.42 15.2669 19.42 16.1984C19.42 17.1299 17.7307 16.751 16.6931 15.7613ZM14.6771 15.8323C14.2438 15.928 13.8216 16.0682 13.4171 16.2506L13.7593 15.4808C14.1014 14.711 14.4564 13.6614 14.4564 13.6614C14.8646 14.3486 15.3397 14.9938 15.8745 15.5877C15.4712 15.6478 15.0714 15.7301 14.6771 15.834V15.8323ZM13.5976 10.2725C13.5976 9.46082 13.8602 9.23929 14.0646 9.23929C14.2691 9.23929 14.4991 9.33765 14.5068 10.0425C14.4402 10.7512 14.2919 11.4498 14.0646 12.1244C13.7534 11.558 13.5923 10.9214 13.5968 10.2751L13.5976 10.2725ZM9.62109 19.2674C8.78456 18.767 11.3754 17.2265 11.845 17.1769C11.8424 17.1778 10.497 19.7909 9.62109 19.2674ZM20.2163 16.3087C20.2077 16.2232 20.1308 15.2763 18.4457 15.3165C17.7434 15.3052 17.0414 15.3547 16.3476 15.4645C15.6755 14.7874 15.0967 14.0237 14.6266 13.1936C14.9228 12.3377 15.102 11.4458 15.1595 10.542C15.1347 9.51557 14.8892 8.92709 14.1023 8.93564C13.3153 8.94419 13.2007 9.63275 13.3042 10.6575C13.4056 11.3461 13.5968 12.0184 13.873 12.6573C13.873 12.6573 13.5095 13.7889 13.0288 14.9145C12.5481 16.0402 12.2196 16.6304 12.2196 16.6304C11.3837 16.9025 10.5968 17.3068 9.88882 17.8278C9.18401 18.4839 8.89747 18.9877 9.26869 19.4915C9.58859 19.926 10.7082 20.0244 11.709 18.7131C12.2407 18.0359 12.7265 17.3238 13.1631 16.5816C13.1631 16.5816 14.689 16.1633 15.1638 16.0487C15.6385 15.9341 16.2124 15.8434 16.2124 15.8434C16.2124 15.8434 17.6058 17.2454 18.9495 17.1957C20.2933 17.1461 20.2283 16.3926 20.2197 16.3105" fill="#DD2025"/>
<path d="M18.5518 0.212891V5.23636H23.3699L18.5518 0.212891Z" fill="#909090"/>
<path d="M18.6174 0.146484V5.16995H23.4356L18.6174 0.146484Z" fill="#F4F4F4"/>
<path d="M5.73928 2.24733H4.62134V6.353H5.50406V4.96905L5.69908 4.98017C5.88774 4.97692 6.07463 4.94312 6.25249 4.88009C6.40841 4.82644 6.55186 4.74177 6.67418 4.63118C6.79769 4.52554 6.89492 4.39259 6.95815 4.24286C7.04394 3.99352 7.07458 3.72853 7.04796 3.4662C7.04262 3.2788 7.00977 3.0932 6.95045 2.91535C6.89646 2.78697 6.81633 2.67124 6.71516 2.57552C6.61399 2.4798 6.494 2.40619 6.36283 2.35938C6.24889 2.31792 6.13114 2.28784 6.01128 2.26957C5.92098 2.25563 5.82979 2.2482 5.73842 2.24733M5.57676 4.2095H5.50064V2.94358H5.66657C5.73943 2.93833 5.81254 2.94951 5.8805 2.97631C5.94845 3.00311 6.00952 3.04483 6.05918 3.0984C6.16209 3.23612 6.21707 3.40376 6.21571 3.57568C6.21571 3.7861 6.21571 3.97684 6.02582 4.11113C5.88902 4.18637 5.73331 4.22025 5.57762 4.20864M8.71675 2.23621C8.62181 2.23621 8.52943 2.24305 8.46442 2.24562L8.26341 2.25075H7.59624V6.35642H8.38145C8.68153 6.36465 8.9803 6.31379 9.26075 6.20674C9.48649 6.1172 9.68638 5.97287 9.84239 5.78676C9.9941 5.59897 10.103 5.38033 10.1614 5.1461C10.2286 4.88083 10.2614 4.60802 10.2589 4.33438C10.2755 4.01119 10.2505 3.68721 10.1845 3.3704C10.1219 3.1372 10.0046 2.92228 9.84239 2.74343C9.71511 2.59901 9.5593 2.48252 9.38478 2.40129C9.2349 2.33193 9.07725 2.28082 8.91519 2.24904C8.85075 2.23839 8.78548 2.23353 8.72017 2.2345M8.5645 5.60201H8.47896V2.98122H8.49008C8.66642 2.96093 8.84484 2.99274 9.00329 3.07274C9.11933 3.1654 9.21388 3.28213 9.28042 3.41488C9.35223 3.55459 9.39363 3.70792 9.40188 3.86479C9.40958 4.05297 9.40188 4.20693 9.40188 4.33438C9.40537 4.48119 9.39592 4.62802 9.37366 4.77317C9.34729 4.9222 9.29856 5.06639 9.2291 5.20085C9.15049 5.32586 9.04427 5.4312 8.91861 5.50877C8.81308 5.57703 8.68811 5.60887 8.56279 5.59944M12.9054 2.25075H10.8269V6.35642H11.7062V4.72784H12.8181V3.96487H11.7062V3.01372H12.9037V2.25075" fill="white"/>
</svg>
