<svg width="24" height="25" viewBox="0 0 24 25" fill="none" xmlns="http://www.w3.org/2000/svg">
<path opacity="0.5" d="M20.3571 0.646484H3.59242C2.64053 0.649327 1.72843 1.02873 1.05534 1.70182C0.382242 2.37492 0.00284291 3.28701 0 4.23891V14.8485L4.6462 10.2023C5.3308 9.55074 6.23973 9.18733 7.18485 9.18733C8.12996 9.18733 9.03889 9.55074 9.72349 10.2023L13.1614 13.6594L14.2248 12.5961C14.8997 11.9249 15.8128 11.5482 16.7646 11.5482C17.7164 11.5482 18.6296 11.9249 19.3045 12.5961L23.9495 17.2435V4.23891C23.9466 3.28701 23.5672 2.37492 22.8941 1.70182C22.2211 1.02873 21.309 0.649327 20.3571 0.646484Z" fill="black"/>
<path d="M9.72349 10.2025C9.03889 9.55091 8.12996 9.1875 7.18485 9.1875C6.23973 9.1875 5.3308 9.55091 4.6462 10.2025L0 14.8487V21.0037C0.00284291 21.9556 0.382242 22.8677 1.05534 23.5408C1.72843 24.2139 2.64053 24.5933 3.59242 24.5961H20.3571C20.8401 24.5958 21.3182 24.4981 21.7626 24.3088C22.207 24.1195 22.6087 23.8426 22.9436 23.4945L9.72349 10.2025Z" fill="black"/>
<path opacity="0.25" d="M23.9494 17.2397L19.3044 12.5947C18.6295 11.9236 17.7164 11.5469 16.7646 11.5469C15.8128 11.5469 14.8996 11.9236 14.2247 12.5947L13.1614 13.6581L22.9388 23.4882C23.5878 22.8236 23.9506 21.9314 23.9494 21.0022V17.2397Z" fill="black"/>
</svg>
