<svg width="32" height="16" viewBox="0 0 32 16" fill="none" xmlns="http://www.w3.org/2000/svg">
<path d="M2.11296 8.12191C2.11455 6.72142 2.67159 5.37875 3.66189 4.38845C4.65218 3.39815 5.99486 2.84111 7.39535 2.83952H14.7907V0.726562H7.39535C5.43398 0.726562 3.55294 1.50571 2.16605 2.89261C0.77915 4.27951 0 6.16054 0 8.12191C0 10.0833 0.77915 11.9643 2.16605 13.3512C3.55294 14.7381 5.43398 15.5173 7.39535 15.5173H14.7907V13.4043H7.39535C5.99486 13.4027 4.65218 12.8457 3.66189 11.8554C2.67159 10.8651 2.11455 9.5224 2.11296 8.12191ZM24.299 0.726562H16.9036V2.83952H24.299C25.7 2.83952 27.0436 3.39605 28.0342 4.38669C29.0248 5.37733 29.5814 6.72093 29.5814 8.12191C29.5814 9.52288 29.0248 10.8665 28.0342 11.8571C27.0436 12.8478 25.7 13.4043 24.299 13.4043H16.9036V15.5173H24.299C26.2604 15.5173 28.1414 14.7381 29.5283 13.3512C30.9152 11.9643 31.6943 10.0833 31.6943 8.12191C31.6943 6.16054 30.9152 4.27951 29.5283 2.89261C28.1414 1.50571 26.2604 0.726562 24.299 0.726562Z" fill="black"/>
<path d="M8.18774 7.10938H23.5067V9.22233H8.18774V7.10938Z" fill="black"/>
</svg>
