<svg width="31" height="29" viewBox="0 0 31 29" fill="none" xmlns="http://www.w3.org/2000/svg">
<path d="M26.3318 7.57638C23.1934 0.646687 14.9105 4.19811 14.4793 7.60311C12.7854 3.59627 5.94437 3.09809 2.85274 7.47613C-1.19173 13.2035 6.72297 22.1293 14.5253 25.8156C20.9902 21.7068 29.2993 14.1289 26.3318 7.57638Z" fill="#E16565"/>
<path d="M14.4793 7.60311C14.9105 4.19811 23.1934 0.646687 26.3318 7.57638C29.2993 14.1289 20.9902 21.7068 14.5253 25.8156C6.72297 22.1293 -1.19173 13.2035 2.85274 7.47613C5.94437 3.09809 12.7854 3.59627 14.4793 7.60311ZM14.4793 7.60311C14.4793 7.60311 15.2309 9.03462 14.102 10.5528" stroke="#071F08" stroke-width="3" stroke-linecap="round"/>
</svg>
