<svg width="38" height="38" viewBox="0 0 38 38" fill="none" xmlns="http://www.w3.org/2000/svg">
<path d="M18.7846 7.09597C18.594 6.94633 18.3975 6.78959 18.1998 6.63005C16.971 5.63846 15.1749 5.90753 14.7857 7.43779C14.5345 8.42559 13.4208 9.33735 12.4287 9.10371L12.1063 9.0278C10.3909 8.62383 8.82973 10.1235 9.16445 11.8537L9.17583 11.9126C9.40412 13.0926 8.74909 14.2655 7.62465 14.6902L7.5384 14.7227C5.85532 15.3583 5.4104 17.5317 6.70834 18.7775C7.56095 19.5959 7.70689 20.9067 7.05515 21.8926L6.96507 22.0288C6.02602 23.4493 6.84459 25.3672 8.51993 25.6718L8.82067 25.7265C9.88123 25.9194 10.6103 26.9019 10.4876 27.9728C10.3022 29.5901 11.988 30.7659 13.4416 30.0331L13.6138 29.9464C14.4485 29.5256 15.4595 29.6923 16.1149 30.3588L17.0758 31.3359C18.2281 32.5077 20.1857 32.2289 20.9652 30.7821C21.5329 29.7286 22.7805 29.2419 23.9115 29.6328L24.8274 29.9493C26.3408 30.4723 27.9112 29.3238 27.8713 27.723L27.8624 27.3637C27.834 26.2248 28.7789 25.3016 29.9168 25.3563C31.5659 25.4356 32.5688 23.566 31.5907 22.2359L30.8593 21.2414C30.2526 20.4164 30.3826 19.2634 31.1578 18.5942L31.436 18.3541C32.4512 17.4777 32.1421 15.8318 30.8782 15.3834C30.0196 15.0788 29.5389 14.1659 29.7736 13.2856L30.0405 12.2843C30.4015 10.9303 29.2691 9.64472 27.8804 9.83197C26.931 9.95998 26.0277 9.38431 25.7428 8.46963L25.5695 7.91302C25.0337 6.19298 22.8731 5.64122 21.5782 6.89379C20.8011 7.64555 19.635 7.76367 18.7846 7.09597Z" fill="#FAC96A" stroke="#3F3D3D" stroke-width="2"/>
<path d="M26.8245 16.2392C28.1254 20.4158 25.6312 24.9952 21.1208 26.4C16.6104 27.8049 11.9569 25.4517 10.6561 21.2751C9.35521 17.0985 11.8494 12.5191 16.3598 11.1143C20.8702 9.70944 25.5237 12.0626 26.8245 16.2392Z" fill="#FAECBC" stroke="#3F3D3D" stroke-width="2"/>
<path d="M18.4766 22.5081C19.382 23.5819 21.4072 23.0271 21.5962 21.5644" stroke="#3F3D3D" stroke-width="2" stroke-linecap="round"/>
<path d="M21.2643 20.7707C21.3149 21.4485 21.8189 21.9033 22.5208 21.4808" stroke="#3F3D3D" stroke-width="2" stroke-linecap="round"/>
<path fill-rule="evenodd" clip-rule="evenodd" d="M22.7396 13.6744C22.2638 13.1143 21.424 13.0459 20.8638 13.5217C20.3037 13.9975 20.2353 14.8373 20.7111 15.3975C20.795 15.4963 20.8953 15.6329 21.0016 15.801C23.5697 15.9945 23.0629 17.0499 22.7396 17.0499L21.5775 17.0499C21.7554 17.6239 21.9394 18.4554 21.872 19.1249C21.7985 19.8562 22.3317 20.5086 23.0629 20.5822C23.7942 20.6557 24.4467 20.1225 24.5202 19.3913C24.7838 16.7705 23.4605 14.5231 22.7396 13.6744Z" fill="#3F3D3D"/>
<path fill-rule="evenodd" clip-rule="evenodd" d="M15.474 16.1813C14.9982 15.6211 14.1584 15.5527 13.5982 16.0285C13.038 16.5043 12.9696 17.3441 13.4454 17.9043C13.5294 18.0031 13.6297 18.1398 13.736 18.3078C16.3041 18.5013 15.7973 19.5567 15.474 19.5567L14.3119 19.5567C14.4898 20.1307 14.6737 20.9623 14.6064 21.6317C14.5328 22.363 15.066 23.0154 15.7973 23.089C16.5286 23.1626 17.181 22.6294 17.2546 21.8981C17.5182 19.2773 16.1948 17.0299 15.474 16.1813Z" fill="#3F3D3D"/>
</svg>
