<svg width="26" height="26" viewBox="0 0 26 26" fill="none" xmlns="http://www.w3.org/2000/svg">
<path d="M7.69106 23.3241C7.10806 23.3241 6.60879 23.1163 6.19327 22.7008C5.77775 22.2853 5.57035 21.7864 5.57105 21.2041C5.57105 20.6211 5.77881 20.1218 6.19433 19.7063C6.60985 19.2908 7.10876 19.0834 7.69106 19.0841C8.27406 19.0841 8.77332 19.2918 9.18884 19.7074C9.60435 20.1229 9.81176 20.6218 9.81106 21.2041C9.81106 21.7871 9.60329 22.2863 9.18777 22.7019C8.77225 23.1174 8.27335 23.3248 7.69106 23.3241ZM18.2911 23.3241C17.7081 23.3241 17.2088 23.1163 16.7933 22.7008C16.3778 22.2853 16.1703 21.7864 16.1711 21.2041C16.1711 20.6211 16.3788 20.1218 16.7943 19.7063C17.2099 19.2908 17.7088 19.0834 18.2911 19.0841C18.8741 19.0841 19.3733 19.2918 19.7888 19.7074C20.2044 20.1229 20.4118 20.6218 20.4111 21.2041C20.4111 21.7871 20.2033 22.2863 19.7878 22.7019C19.3723 23.1174 18.8733 23.3248 18.2911 23.3241ZM6.79006 6.36408L9.33405 11.6641H16.7541L19.6691 6.36408H6.79006ZM5.78305 4.24408H21.4181C21.8244 4.24408 22.1336 4.42534 22.3456 4.78786C22.5576 5.15038 22.5664 5.51679 22.3721 5.88708L18.6091 12.6711C18.4147 13.0244 18.154 13.2983 17.8268 13.4926C17.4996 13.6869 17.142 13.7841 16.7541 13.7841H8.85706L7.69106 15.9041H20.4111V18.0241H7.69106C6.89606 18.0241 6.29539 17.675 5.88906 16.9768C5.48272 16.2786 5.46505 15.5854 5.83605 14.8971L7.26706 12.3001L3.45105 4.24408H1.33105V2.12408H4.77605L5.78305 4.24408Z" fill="#111318"/>
</svg>
