<svg width="19" height="21" viewBox="0 0 19 21" fill="none" xmlns="http://www.w3.org/2000/svg">
<path d="M2.16741 12.6042L1.40532 11.9567H1.40532L2.16741 12.6042ZM3.04667 10.5626L2.05303 10.4501L3.04667 10.5626ZM16.3772 10.5626L17.3708 10.4501V10.4501L16.3772 10.5626ZM17.2564 12.6042L18.0185 11.9567L17.2564 12.6042ZM16.0323 7.51816L15.0386 7.63072V7.63072L16.0323 7.51816ZM3.39155 7.51816L4.3852 7.63072L3.39155 7.51816ZM13.6483 18.0751C13.8421 17.5579 13.58 16.9815 13.0629 16.7877C12.5457 16.5939 11.9693 16.856 11.7755 17.3732L13.6483 18.0751ZM7.64831 17.3732C7.45449 16.856 6.87813 16.5939 6.36098 16.7877C5.84382 16.9815 5.5817 17.5579 5.77552 18.0751L7.64831 17.3732ZM15.8818 14.7241H3.54205V16.7241H15.8818V14.7241ZM15.0386 7.63072L15.3835 10.6752L17.3708 10.4501L17.0259 7.4056L15.0386 7.63072ZM4.04032 10.6752L4.3852 7.63072L2.39791 7.4056L2.05303 10.4501L4.04032 10.6752ZM2.9295 13.2516C3.54673 12.5251 3.93256 11.6264 4.04032 10.6752L2.05303 10.4501C1.9894 11.0118 1.76203 11.5368 1.40532 11.9567L2.9295 13.2516ZM15.3835 10.6752C15.4913 11.6264 15.8771 12.5251 16.4943 13.2516L18.0185 11.9567C17.6618 11.5368 17.4344 11.0118 17.3708 10.4501L15.3835 10.6752ZM3.54205 14.7241C2.88277 14.7241 2.41023 13.8628 2.9295 13.2516L1.40532 11.9567C-0.142229 13.7782 1.06268 16.7241 3.54205 16.7241V14.7241ZM15.8818 16.7241C18.3611 16.7241 19.5661 13.7782 18.0185 11.9567L16.4943 13.2516C17.0136 13.8628 16.5411 14.7241 15.8818 14.7241V16.7241ZM17.0259 7.4056C16.5971 3.62014 13.4727 0.724121 9.71192 0.724121V2.72412C12.4092 2.72412 14.7191 4.80981 15.0386 7.63072L17.0259 7.4056ZM4.3852 7.63072C4.70475 4.80981 7.01463 2.72412 9.71192 2.72412V0.724121C5.95109 0.724121 2.82672 3.62014 2.39791 7.4056L4.3852 7.63072ZM11.7755 17.3732C11.4908 18.1329 10.6963 18.7241 9.71191 18.7241V20.7241C11.4975 20.7241 13.0597 19.6457 13.6483 18.0751L11.7755 17.3732ZM9.71191 18.7241C8.72748 18.7241 7.93304 18.1329 7.64831 17.3732L5.77552 18.0751C6.36416 19.6457 7.92629 20.7241 9.71191 20.7241V18.7241Z" fill="#111318"/>
</svg>
